<svg width="24" height="36" viewBox="0 0 24 36" fill="none" xmlns="http://www.w3.org/2000/svg">
<path d="M14.7441 35.9199H8.00928C6.88428 35.9199 5.96924 35.1387 5.96924 34.1777V21.2031H2.04004C0.915039 21.2031 0 20.4204 0 19.4609V13.9014C0 12.9399 0.915039 12.1587 2.04004 12.1587H5.96924V9.37451C5.96924 6.61426 6.98389 4.26562 8.90381 2.58301C10.832 0.893066 13.5266 0 16.6968 0L21.8333 0.00732422C22.9565 0.00878906 23.8696 0.790039 23.8696 1.74951V6.91162C23.8696 7.87207 22.9551 8.6543 21.8303 8.6543L18.3723 8.65479C17.3174 8.65479 17.0491 8.83545 16.9917 8.89062C16.897 8.98291 16.7844 9.24268 16.7844 9.9585V12.1587H21.5706C21.9307 12.1587 22.2798 12.2344 22.5801 12.3774C23.2271 12.6865 23.6294 13.27 23.6294 13.9014L23.627 19.4609C23.627 20.4204 22.7119 21.2026 21.5869 21.2026H16.7844V34.1777C16.7844 35.1387 15.8687 35.9199 14.7441 35.9199ZM8.43433 33.814H14.3184V20.2607C14.3184 19.6187 14.9297 19.0972 15.6804 19.0972H21.1614L21.1638 14.2646H15.6799C14.9294 14.2646 14.3184 13.7427 14.3184 13.1011V9.9585C14.3184 9.13623 14.4165 8.2002 15.1436 7.49707C16.022 6.64697 17.4062 6.54883 18.3716 6.54883L21.4045 6.54785V2.1123L16.6953 2.10596C11.6006 2.10596 8.43433 4.8916 8.43433 9.37451V13.1011C8.43433 13.7427 7.82349 14.2646 7.07275 14.2646H2.46533V19.0972H7.07275C7.82349 19.0972 8.43433 19.6187 8.43433 20.2607V33.814Z" fill="white"/>
</svg>
