<svg xmlns="http://www.w3.org/2000/svg" width="35.6" height="26.7" viewBox="0 0 35.6 26.7">
  <g id="burger-bar" transform="translate(-2 -4.5)">
    <path id="Path_4863" data-name="Path 4863" d="M4.67,9.84H34.93a2.67,2.67,0,1,0,0-5.34H4.67a2.67,2.67,0,0,0,0,5.34Z" transform="translate(0 0)" fill="#3662c1"/>
    <path id="Path_4864" data-name="Path 4864" d="M34.93,10.5H4.67a2.67,2.67,0,1,0,0,5.34H34.93a2.67,2.67,0,1,0,0-5.34Z" transform="translate(0 4.68)" fill="#3662c1"/>
    <path id="Path_4865" data-name="Path 4865" d="M34.93,16.5H4.67a2.67,2.67,0,1,0,0,5.34H34.93a2.67,2.67,0,1,0,0-5.34Z" transform="translate(0 9.36)" fill="#3662c1"/>
  </g>
</svg>
