<svg width="38" height="38" viewBox="0 0 38 38" fill="none" xmlns="http://www.w3.org/2000/svg">
<path d="M37.2953 10.995C37.2076 9.00789 36.8863 7.6418 36.426 6.45805C35.9511 5.20154 35.2206 4.07659 34.2634 3.14142C33.3282 2.19168 32.1959 1.4537 30.9539 0.986257C29.7633 0.525945 28.4044 0.204613 26.4173 0.117004C24.4154 0.0219739 23.7798 0 18.7024 0C13.625 0 12.9895 0.0219739 10.995 0.109584C9.00789 0.197195 7.6418 0.518813 6.45834 0.978837C5.20154 1.4537 4.07659 2.18427 3.14142 3.14142C2.19168 4.0766 1.45398 5.20897 0.986256 6.45093C0.525945 7.6418 0.204613 9.00047 0.117004 10.9876C0.0219738 12.9895 0 13.625 0 18.7024C0 23.7799 0.0219739 24.4154 0.109584 26.4099C0.197195 28.3969 0.518813 29.763 0.979122 30.9468C1.45399 32.2033 2.19169 33.3283 3.14142 34.2634C4.0766 35.2132 5.20897 35.9511 6.45093 36.4186C7.6418 36.8789 9.00047 37.2002 10.9878 37.2878C12.982 37.3757 13.6179 37.3974 18.6953 37.3974C23.7727 37.3974 24.4082 37.3757 26.4027 37.2878C28.3898 37.2002 29.7559 36.8789 30.9393 36.4186C33.4526 35.4469 35.4397 33.4598 36.4114 30.9468C36.8714 29.7559 37.1931 28.3969 37.2807 26.4099C37.3683 24.4154 37.3903 23.7798 37.3903 18.7024C37.3903 13.625 37.3829 12.9895 37.2953 10.995ZM33.9275 26.2637C33.8471 28.0901 33.5403 29.0764 33.2846 29.7339C32.6562 31.3631 31.3631 32.6561 29.7339 33.2845C29.0764 33.5402 28.083 33.847 26.2638 33.9272C24.2912 34.0151 23.6996 34.0368 18.7099 34.0368C13.7201 34.0368 13.1211 34.0151 11.1557 33.9272C9.32931 33.847 8.34305 33.5402 7.68554 33.2845C6.87479 32.9849 6.13681 32.51 5.53781 31.8891C4.91683 31.2826 4.44197 30.5521 4.14232 29.7413C3.88662 29.0838 3.57984 28.0901 3.49965 26.2711C3.41175 24.2986 3.39007 23.7068 3.39007 18.717C3.39007 13.7272 3.41175 13.1282 3.49965 11.1631C3.57984 9.3367 3.88662 8.35044 4.14232 7.69294C4.44196 6.8819 4.91683 6.1442 5.54522 5.54491C6.15136 4.92394 6.88193 4.44907 7.69296 4.14971C8.35047 3.89401 9.34415 3.58723 11.1631 3.50676C13.1357 3.41914 13.7275 3.39717 18.717 3.39717C23.7142 3.39717 24.3058 3.41914 26.2712 3.50676C28.0976 3.58723 29.0838 3.89401 29.7413 4.14971C30.5521 4.44907 31.2901 4.92394 31.8891 5.54491C32.5101 6.15134 32.9849 6.8819 33.2846 7.69294C33.5403 8.35044 33.847 9.34384 33.9275 11.1631C34.0151 13.1356 34.0371 13.7272 34.0371 18.717C34.0371 23.7067 34.0151 24.2912 33.9275 26.2637Z" fill="white"/>
<path d="M18.7026 9.0957C13.3989 9.0957 9.0957 13.3986 9.0957 18.7026C9.0957 24.0066 13.3989 28.3095 18.7026 28.3095C24.0066 28.3095 28.3095 24.0066 28.3095 18.7026C28.3095 13.3986 24.0066 9.0957 18.7026 9.0957ZM18.7026 24.9344C15.2618 24.9344 12.4708 22.1437 12.4708 18.7026C12.4708 15.2615 15.2618 12.4709 18.7026 12.4709C22.1436 12.4709 24.9343 15.2615 24.9343 18.7026C24.9343 22.1437 22.1436 24.9344 18.7026 24.9344Z" fill="white"/>
<path d="M30.9321 8.71591C30.9321 9.95444 29.9279 10.9587 28.689 10.9587C27.4505 10.9587 26.4463 9.95444 26.4463 8.71591C26.4463 7.4771 27.4505 6.47314 28.689 6.47314C29.9279 6.47314 30.9321 7.4771 30.9321 8.71591Z" fill="white"/>
</svg>
